Coordinates
version=1
nRows=22
nColumns=24
inDegrees=yes

Units are S.I. units (second, meters, Newtons, ...)
Angles are in degrees.

endheader
time	pelvis_tilt	pelvis_list	pelvis_rotation	pelvis_tx	pelvis_ty	pelvis_tz	hip_flexion_r	hip_adduction_r	hip_rotation_r	knee_angle_r	ankle_angle_r	subtalar_angle_r	mtp_angle_r	hip_flexion_l	hip_adduction_l	hip_rotation_l	knee_angle_l	ankle_angle_l	subtalar_angle_l	mtp_angle_l	lumbar_extension	lumbar_bending	lumbar_rotation
      4.93000000	     -8.34216291	      4.21135637	      3.26896476	     -0.93041086	     -0.00447223	     -0.31413698	     27.27069889	    -10.60580655	    -11.64162793	    -62.51609924	    -12.70958888	      3.67121249	     36.48747548	     12.04785965	     10.64622048	     15.27567135	    -14.23932379	      1.14235492	     -7.67702544	      4.84777608	      7.30585666	     -7.25860250	      0.92837427
      4.93500000	     -8.26185057	      4.01537738	      3.46730163	     -0.92586178	     -0.00407081	     -0.31454966	     27.77966715	    -10.40564793	    -11.78008973	    -61.89989519	    -12.13702715	      3.75494079	     36.63187680	     11.52805185	     10.44276415	     15.53791268	    -14.02420887	      1.32950279	     -7.57145934	      4.93645191	      7.13289115	     -7.08536881	      0.57692643
      4.94000000	     -8.12408200	      3.82859540	      3.72156728	     -0.92125597	     -0.00364699	     -0.31500672	     28.18026791	    -10.24703766	    -11.97976702	    -61.21782694	    -11.58201368	      3.92452514	     36.73496946	     10.93272926	     10.24874727	     15.78138237	    -13.78478675	      1.53400486	     -7.45435878	      5.06361989	      6.90199960	     -6.94472537	      0.09843215
      4.94500000	     -7.99294888	      3.66745044	      3.92740533	     -0.91668136	     -0.00328070	     -0.31540746	     28.59097402	    -10.07753515	    -12.10331228	    -60.48500845	    -11.06249979	      4.03928815	     36.75559144	     10.34809669	     10.06748072	     15.99292457	    -13.54066085	      1.71075710	     -7.36077976	      5.19477373	      6.68307716	     -6.80740999	     -0.30056797
      4.95000000	     -7.83695978	      3.52238273	      4.14195669	     -0.91216818	     -0.00294738	     -0.31575331	     28.95686815	     -9.91021277	    -12.20659703	    -59.70086994	    -10.52659724	      4.15975871	     36.68467977	      9.75100724	      9.89716387	     16.22208943	    -13.31839513	      1.87698421	     -7.26829269	      5.35472565	      6.41780470	     -6.69646165	     -0.70071847
      4.95500000	     -7.71088576	      3.38000770	      4.33866644	     -0.90761112	     -0.00268502	     -0.31604916	     29.33888834	     -9.72988696	    -12.27765931	    -58.86172321	    -10.03795248	      4.28980856	     36.55145210	      9.18094761	      9.72171346	     16.43497307	    -13.08407307	      2.04888511	     -7.20398200	      5.49831094	      6.20312059	     -6.58485992	     -1.06773802
      4.96000000	     -7.57902491	      3.24796200	      4.53997072	     -0.90305943	     -0.00246296	     -0.31632250	     29.69128604	     -9.55227624	    -12.32997393	    -57.96536052	     -9.56613088	      4.43386017	     36.35374383	      8.61335457	      9.55635726	     16.65848030	    -12.86954054	      2.22715857	     -7.16000773	      5.62465985	      5.98202185	     -6.49044099	     -1.43365956
      4.96500000	     -7.53959171	      3.13375669	      4.66653767	     -0.89857081	     -0.00242715	     -0.31647523	     30.16820882	     -9.33978025	    -12.25245744	    -57.03683561	     -9.20731643	      4.51550715	     36.24798183	      8.15862152	      9.40370347	     16.86514026	    -12.66999829	      2.44134600	     -7.15409871	      5.70502813	      5.85715812	     -6.40702286	     -1.69695268
      4.97000000	     -7.30824640	      3.02490897	      4.94884774	     -0.89398112	     -0.00215935	     -0.31682263	     30.32741088	     -9.22832335	    -12.38788606	    -56.02233842	     -8.70615247	      4.74597260	     35.83227496	      7.48057333	      9.26484612	     17.15776766	    -12.46544735	      2.61083825	     -7.13455734	      5.76944159	      5.52604284	     -6.33565115	     -2.16658818
      4.97500000	     -7.14845374	      2.94369475	      5.09428507	     -0.88945073	     -0.00203424	     -0.31691053	     30.60709465	     -9.03744897	    -12.31249453	    -55.01997841	     -8.13230096	      5.01820526	     34.88930833	      6.88097430	      9.13557710	     17.44975059	    -12.25689193	      2.75003193	     -7.27336667	      5.68908501	      5.26683971	     -6.28749330	     -2.44315345
      4.98000000	     -7.07264605	      2.83649246	      5.34851040	     -0.88499024	     -0.00202206	     -0.31713151	     30.92374875	     -8.88984317	    -12.32014239	    -53.90725690	     -7.79657186	      5.20622991	     34.62803979	      6.42532882	      9.00549166	     17.73581545	    -12.14145097	      2.96603956	     -7.24969837	      5.69408339	      5.08535350	     -6.23311925	     -2.86693172
      4.98500000	     -6.96156254	      2.72475736	      5.56436028	     -0.88040494	     -0.00196905	     -0.31731586	     31.16381726	     -8.71603327	    -12.30635908	    -52.72571081	     -7.46644634	      5.40326913	     34.23173010	      5.90447665	      8.85755584	     18.03110633	    -11.98620189	      3.15141143	     -7.31787938	      5.61924857	      4.89602607	     -6.15597803	     -3.20442982
      4.99000000	     -6.80491680	      2.64056405	      5.79610877	     -0.87599702	     -0.00191667	     -0.31744282	     31.34907085	     -8.55618270	    -12.24182024	    -51.52963227	     -7.09949474	      5.64947416	     33.56797286	      5.36185066	      8.73895173	     18.41150789	    -11.88357863	      3.33821782	     -7.43265172	      5.43715706	      4.60631875	     -6.11904716	     -3.60468534
      4.99500000	     -6.70895558	      2.54558926	      6.01884655	     -0.87151905	     -0.00193506	     -0.31756128	     31.56834589	     -8.39074592	    -12.17359094	    -50.27979809	     -6.74968763	      5.90461060	     32.85144222	      4.88566468	      8.61048799	     18.76051292	    -11.78416813	      3.54064467	     -7.53449058	      5.21605149	      4.40396044	     -6.07109388	     -3.95685414
      5.00000000	     -6.63298631	      2.48209812	      6.17353786	     -0.86702267	     -0.00200625	     -0.31760075	     31.80842888	     -8.21845080	    -12.00083140	    -49.02423296	     -6.32226470	      6.24964700	     31.81685406	      4.42597597	      8.51109099	     19.06151862	    -11.68443445	      3.75625323	     -7.66848746	      4.81781024	      4.23365826	     -6.04192409	     -4.21364480
      5.00500000	     -6.66932057	      2.36460916	      6.37928498	     -0.86262176	     -0.00219355	     -0.31766638	     32.12826429	     -8.02231550	    -11.83891639	    -47.64193094	     -6.23099188	      6.40584095	     31.59068087	      4.14538890	      8.36862913	     19.30970725	    -11.65303025	      3.94858928	     -7.68727361	      4.82241514	      4.16864177	     -5.97457329	     -4.51266664
      5.01000000	     -6.51088265	      2.25679462	      6.66829692	     -0.85820745	     -0.00215246	     -0.31781903	     32.16771230	     -7.88076023	    -11.81794226	    -46.21584428	     -6.00931351	      6.56019332	     30.89594848	      3.62546897	      8.21632651	     19.72109752	    -11.58922701	      4.12928953	     -7.75520108	      4.65216773	      3.88037707	     -5.90853496	     -4.96484267
      5.01500000	     -6.43617094	      2.14092160	      6.87391319	     -0.85376051	     -0.00222006	     -0.31786415	     32.29858620	     -7.68607773	    -11.67114460	    -44.77667730	     -5.74742024	      6.79965127	     29.99801116	      3.19732822	      8.05368917	     20.05509477	    -11.52144744	      4.31981174	     -7.85423133	      4.41000599	      3.69540879	     -5.82873490	     -5.27484573
      5.02000000	     -6.51838380	      2.04528620	      7.01014389	     -0.84938099	     -0.00249975	     -0.31781729	     32.60952280	     -7.48924199	    -11.37795811	    -43.29338026	     -5.67419170	      7.01431296	     29.69880144	      2.97430523	      7.92674442	     20.23008650	    -11.49485634	      4.47915426	     -7.89125454	      4.39069146	      3.67718637	     -5.78130737	     -5.47162194
      5.02500000	     -6.35945126	      1.94745381	      7.19688277	     -0.84490874	     -0.00249127	     -0.31780782	     32.59538105	     -7.30740141	    -11.21905967	    -41.82840761	     -5.18066121	      7.38217609	     28.15807594	      2.44224524	      7.75764386	     20.54608896	    -11.40900078	      4.69597090	     -7.92924386	      4.02637754	      3.39952442	     -5.70982112	     -5.76762286
      5.03000000	     -6.47384501	      1.82074563	      7.37180320	     -0.84055760	     -0.00280413	     -0.31781365	     32.87375131	     -7.11701492	    -10.95805390	    -40.25771715	     -5.17023120	      7.48397783	     27.86950881	      2.27368061	      7.60317723	     20.74046282	    -11.40705001	      4.85831092	     -7.93557528	      4.04705292	      3.40981049	     -5.62938892	     -6.01294983
      5.03500000	     -6.35333529	      1.69342983	      7.54848886	     -0.83611297	     -0.00283888	     -0.31775324	     32.84421073	     -6.90377963	    -10.75583236	    -38.68717585	     -4.82617465	      7.69765295	     26.67854780	      1.80910653	      7.39037675	     20.93926579	    -11.33070325	      5.06028378	     -7.84432592	      3.96341728	      3.17242395	     -5.52602539	     -6.28834176
